<?xml version="1.0" encoding="UTF-8" standalone="no"?>
<svg
   xmlns:dc="http://purl.org/dc/elements/1.1/"
   xmlns:cc="http://creativecommons.org/ns#"
   xmlns:rdf="http://www.w3.org/1999/02/22-rdf-syntax-ns#"
   xmlns:svg="http://www.w3.org/2000/svg"
   xmlns="http://www.w3.org/2000/svg"
   id="svg6124"
   version="1.1"
   viewBox="0 0 211.66666 52.91667"
   height="200"
   width="800">
  <title
     id="title6744">GETLEGIT!</title>
  <defs
     id="defs6118" />
  <metadata
     id="metadata6121">
    <rdf:RDF>
      <cc:Work
         rdf:about="">
        <dc:format>image/svg+xml</dc:format>
        <dc:type
           rdf:resource="http://purl.org/dc/dcmitype/StillImage" />
        <dc:title>GETLEGIT!</dc:title>
        <dc:creator>
          <cc:Agent>
            <dc:title>Robin Edmunds</dc:title>
          </cc:Agent>
        </dc:creator>
        <dc:description>Logo of GETLEGIT! Counter-Strike team.
https://getlegit.co.uk</dc:description>
      </cc:Work>
    </rdf:RDF>
  </metadata>
  <g
     transform="translate(0,-244.08333)"
     id="layer1">
    <g
       transform="translate(3.769014,6.1820097)"
       id="g6742">
      <path
         id="path2004"
         d="m 82.443672,248.18077 v 17.0171 L 70.74335,281.4545 82.443672,274.44154 v 10.99403 H 195.68563 v -37.25482 z"
         style="display:inline;opacity:1;fill:#ffffff;fill-opacity:1;stroke:#000000;stroke-width:3.37720704;stroke-linecap:round;stroke-linejoin:round;stroke-miterlimit:100;stroke-dasharray:none;stroke-opacity:1;paint-order:markers fill stroke" />
      <g
         style="display:inline;opacity:1"
         id="g2002"
         transform="matrix(0.80508297,0,-0.03452571,0.80508297,3.7658241,81.199915)">
        <path
           style="font-style:normal;font-variant:normal;font-weight:bold;font-stretch:normal;font-size:25.39999962px;line-height:1.25;font-family:'Red Hat Display';-inkscape-font-specification:'Red Hat Display Bold';letter-spacing:-7.14374971px;word-spacing:0px;fill:#000000;fill-opacity:1;stroke:none;stroke-width:0.34173048"
           d="m 139.08057,218.56722 -1.6708,22.96403 h 13.2534 l 0.30074,-4.13348 h -8.49654 l 0.39622,-5.44565 h 8.49653 l 0.29117,-4.00199 h -8.49653 l 0.15408,-2.11778 0.22785,-3.13166 h 5.6846 7.74234 l -0.005,0.0653 -0.22309,3.06625 -1.14221,15.69889 h 4.75685 l 1.3653,-18.76514 h 7.70964 l 0.3055,-4.19888 h -13.00046 -7.20837 z"
           id="path1988" />
        <path
           style="font-style:normal;font-variant:normal;font-weight:bold;font-stretch:normal;font-size:25.39999962px;line-height:1.25;font-family:'Red Hat Display';-inkscape-font-specification:'Red Hat Display Bold';letter-spacing:-7.14374971px;word-spacing:0px;fill:#ff0000;fill-opacity:1;stroke:none;stroke-width:0.34173048"
           d="m 166.68257,218.56687 -1.67085,22.96471 h 11.40527 5.91686 7.3372 l 0.30074,-4.13347 h -0.28433 -7.05287 -1.16 l 0.005,-0.0661 0.39144,-5.38025 h 8.21287 0.28433 l 0.29118,-4.002 h -8.4972 l 0.38189,-5.24877 h 8.49719 l 0.30079,-4.13414 h -13.25406 l -1.3653,18.76516 h -6.6484 l 1.3653,-18.76516 z"
           id="path1990" />
        <path
           d="m 213.6604,230.08202 q -0.18378,2.52607 -1.22947,4.72408 -1.01048,2.1652 -2.66694,3.7399 -1.62127,1.54189 -3.82051,2.46046 -2.19684,0.88577 -4.6573,0.88577 -2.55887,0 -4.72285,-0.91858 -2.164,-0.91857 -3.68973,-2.49326 -1.49054,-1.6075 -2.28439,-3.77271 -0.79384,-2.1652 -0.61243,-4.65847 0.1814,-2.49326 1.25749,-4.65846 1.10892,-2.16521 2.831,-3.73991 1.75726,-1.60749 4.0549,-2.52606 2.29765,-0.91858 4.82372,-0.91858 2.85414,0 5.29667,1.14821 2.44254,1.14822 3.93723,3.14939 l -3.5354,3.05097 q -1.1088,-1.44346 -2.6614,-2.198 -1.5174,-0.78735 -3.35455,-0.78735 -1.54189,0 -2.9299,0.5905 -1.35282,0.55771 -2.41099,1.5747 -1.023,0.98419 -1.68094,2.36204 -0.62277,1.34506 -0.73972,2.95255 -0.11696,1.6075 0.3405,2.98537 0.45744,1.37785 1.36764,2.39484 0.91258,0.98418 2.21466,1.57469 1.33729,0.55771 2.87917,0.55771 2.42766,0 4.26424,-1.34506 1.8694,-1.34504 2.44864,-3.44464 h -6.79087 l 0.30074,-4.13357 h 11.87582 z"
           style="font-style:normal;font-variant:normal;font-weight:bold;font-stretch:normal;font-size:25.39999962px;line-height:1.25;font-family:'Red Hat Display';-inkscape-font-specification:'Red Hat Display Bold';letter-spacing:0px;word-spacing:0px;fill:#ff0000;fill-opacity:1;stroke:none;stroke-width:0.34173048"
           id="path1992" />
        <path
           d="m 211.4594,241.53136 1.67082,-22.96429 h 4.75688 l -1.67082,22.96429 z"
           style="font-style:normal;font-variant:normal;font-weight:bold;font-stretch:normal;font-size:25.39999962px;line-height:1.25;font-family:'Red Hat Display';-inkscape-font-specification:'Red Hat Display Bold';letter-spacing:-3.96875px;word-spacing:0px;fill:#ff0000;fill-opacity:1;stroke:none;stroke-width:0.34173048"
           id="path1994" />
        <path
           d="m 215.12881,222.76625 0.30552,-4.19918 h 20.20858 l -0.30552,4.19918 h -7.70944 l -1.3653,18.76511 h -4.75689 l 1.36529,-18.76511 z"
           style="font-style:normal;font-variant:normal;font-weight:bold;font-stretch:normal;font-size:25.39999962px;line-height:1.25;font-family:'Red Hat Display';-inkscape-font-specification:'Red Hat Display Bold';letter-spacing:-3.96875px;word-spacing:0px;fill:#ff0000;fill-opacity:1;stroke:none;stroke-width:0.34173048"
           id="path1996" />
        <path
           d="m 139.5047,230.08202 q -0.18378,2.52607 -1.22947,4.72408 -1.01049,2.1652 -2.66695,3.7399 -1.62127,1.54189 -3.8205,2.46046 -2.19685,0.88577 -4.6573,0.88577 -2.55888,0 -4.72286,-0.91858 -2.16399,-0.91857 -3.68973,-2.49326 -1.49054,-1.6075 -2.28438,-3.77271 -0.79385,-2.1652 -0.61244,-4.65847 0.1814,-2.49326 1.2575,-4.65846 1.10891,-2.16521 2.83099,-3.73991 1.75726,-1.60749 4.0549,-2.52606 2.29765,-0.91858 4.82373,-0.91858 2.85413,0 5.29667,1.14821 2.44252,1.14822 3.93723,3.14939 l -3.5354,3.05097 q -1.1088,-1.44346 -2.6614,-2.198 -1.51741,-0.78735 -3.35455,-0.78735 -1.54189,0 -2.92991,0.5905 -1.35282,0.55771 -2.411,1.5747 -1.02298,0.98419 -1.68093,2.36204 -0.62277,1.34506 -0.73971,2.95255 -0.11696,1.6075 0.34049,2.98537 0.45745,1.37785 1.36764,2.39484 0.91258,0.98418 2.21466,1.57469 1.33729,0.55771 2.87918,0.55771 2.42765,0 4.26424,-1.34506 1.86939,-1.34504 2.44863,-3.44464 h -6.79086 l 0.30074,-4.13357 h 11.87582 z"
           style="font-style:normal;font-variant:normal;font-weight:bold;font-stretch:normal;font-size:25.39999962px;line-height:1.25;font-family:'Red Hat Display';-inkscape-font-specification:'Red Hat Display Bold';letter-spacing:0px;word-spacing:0px;fill:#000000;fill-opacity:1;stroke:none;stroke-width:0.34173048"
           id="path1998" />
        <path
           id="path2000"
           d="m 233.0758,218.5672 -0.69282,17.09987 h 3.44467 l 1.79611,-17.09987 z m 0.87708,18.97005 c -0.72173,0 -1.36372,0.26268 -1.9268,0.78758 -0.56309,0.5249 -0.87188,1.1586 -0.92598,1.9022 -0.0525,0.72174 0.1648,1.34528 0.65151,1.87019 0.4867,0.52489 1.09047,0.78758 1.8122,0.78758 0.74361,0 1.39709,-0.26269 1.96017,-0.78758 0.5631,-0.52491 0.87116,-1.14845 0.92368,-1.87019 0.0541,-0.7436 -0.1625,-1.3773 -0.6492,-1.9022 -0.48671,-0.5249 -1.10197,-0.78758 -1.84558,-0.78758 z"
           style="font-style:normal;font-variant:normal;font-weight:bold;font-stretch:normal;font-size:25.39999962px;line-height:1.25;font-family:'Red Hat Display';-inkscape-font-specification:'Red Hat Display Bold';letter-spacing:-3.96875px;word-spacing:0px;fill:#000000;fill-opacity:1;stroke:none;stroke-width:0.34173048" />
      </g>
      <path
         id="path6021"
         d="m 36.395194,247.54829 a 20.596896,20.596896 0 0 0 -11.341465,26.82987 20.596896,20.596896 0 0 0 26.830249,11.34129 20.596896,20.596896 0 0 0 3.665453,-1.9398 4.4379794,9.8255962 74.225241 0 1 -7.678716,-2.43882 4.4379794,9.8255962 74.225241 0 1 8.782057,-6.85134 4.4379794,9.8255962 74.225241 0 1 6.699731,-0.47713 20.596896,20.596896 0 0 0 -0.127603,-15.12298 20.596896,20.596896 0 0 0 -0.294479,-0.65776 l -13.968435,5.66799 c -3.497228,1.41909 -7.45507,-0.25393 -8.874135,-3.75114 -1.419082,-3.49723 0.25392,-7.45507 3.751149,-8.87415 l 8.601619,-3.49029 a 20.596896,20.596896 0 0 0 -16.045425,-0.23574 z"
         style="opacity:1;fill:#000000;fill-opacity:1;stroke:none;stroke-width:3.82011914;stroke-linecap:round;stroke-linejoin:round;stroke-miterlimit:100;stroke-dasharray:none;stroke-opacity:1;paint-order:markers fill stroke" />
      <path
         id="path6023"
         d="m 13.274203,260.55033 -3.259893,6.56195 -3.2599015,6.56196 6.9106275,2.43504 6.910628,2.43504 -1.785686,-4.4007 3.698959,-1.50093 a 22.496571,22.496571 0 0 1 -0.364228,-10.55836 l -7.06482,2.86671 z"
         style="opacity:1;fill:#ff0000;fill-opacity:1;stroke:none;stroke-width:1.55629408;stroke-linecap:round;stroke-linejoin:round;stroke-miterlimit:100;stroke-dasharray:none;stroke-opacity:1;paint-order:markers fill stroke" />
      <path
         id="path6025"
         d="m 44.481592,253.01253 c -2.546348,1.03324 -3.764488,3.915 -2.731254,6.46134 1.033234,2.54634 3.914994,3.76448 6.461342,2.73125 l 10.893272,-4.42019 12.911031,-5.23893 4.596294,-1.86505 -1.865048,-4.59629 -1.865048,-4.59629 -4.596297,1.86505 -12.91102,5.23893 z"
         style="opacity:1;fill:#ff0000;fill-opacity:1;stroke:none;stroke-width:2.11170721;stroke-linecap:round;stroke-linejoin:round;stroke-miterlimit:100;stroke-dasharray:none;stroke-opacity:1;paint-order:markers fill stroke" />
      <circle
         r="6.0447412"
         cy="269.0379"
         cx="-62.711151"
         id="circle6027"
         style="opacity:1;fill:#ffffff;fill-opacity:1;stroke:none;stroke-width:3.07363772;stroke-linecap:round;stroke-linejoin:round;stroke-miterlimit:100;stroke-dasharray:none;stroke-opacity:1;paint-order:markers fill stroke"
         transform="rotate(-22.085934)" />
      <circle
         style="opacity:1;fill:#000000;fill-opacity:1;stroke:none;stroke-width:1.02454579;stroke-linecap:round;stroke-linejoin:round;stroke-miterlimit:100;stroke-dasharray:none;stroke-opacity:1;paint-order:markers fill stroke"
         id="circle6029"
         cx="-64.651443"
         cy="270.90359"
         r="2.0149136"
         transform="rotate(-22.085934)" />
      <circle
         style="opacity:1;fill:#ffffff;fill-opacity:1;stroke:none;stroke-width:2.23882246;stroke-linecap:round;stroke-linejoin:round;stroke-miterlimit:100;stroke-dasharray:none;stroke-opacity:1;paint-order:markers fill stroke"
         id="circle6033"
         cx="49.154705"
         cy="-269.03793"
         r="4.4029598"
         transform="rotate(157.91407)" />
      <circle
         r="1.4676532"
         cy="-267.67899"
         cx="47.741428"
         id="circle6035"
         style="opacity:1;fill:#000000;fill-opacity:1;stroke:none;stroke-width:0.74627411;stroke-linecap:round;stroke-linejoin:round;stroke-miterlimit:100;stroke-dasharray:none;stroke-opacity:1;paint-order:markers fill stroke"
         transform="rotate(157.91407)" />
    </g>
  </g>
</svg>
